<?xml version="1.0" encoding="UTF-8"?>
<svg width="20px" height="20px" viewBox="0 0 20 20" version="1.1" xmlns="http://www.w3.org/2000/svg" xmlns:xlink="http://www.w3.org/1999/xlink">
    <!-- Generator: Sketch 63.1 (92452) - https://sketch.com -->
    <title>facebook (6)@1x</title>
    <desc>Created with Sketch.</desc>
    <g id="Symbols" stroke="none" stroke-width="1" fill="none" fill-rule="evenodd">
        <g id="Footer" transform="translate(-1030.000000, -465.000000)" fill-rule="nonzero">
            <g id="facebook-(6)" transform="translate(1030.000000, 465.000000)">
                <path d="M11.6123962,19.8329526 C11.5290832,19.8793068 11.4454651,19.9220152 11.3615418,19.9610776 C11.4454651,19.9220152 11.5290832,19.8793068 11.6123962,19.8329526 Z" id="Path" fill="#000000"></path>
                <path d="M11.826296,19.8189252 C11.7818515,19.8439252 11.7374071,19.8668418 11.6929627,19.8902793 C11.7374071,19.8668418 11.7818515,19.8439252 11.826296,19.8189252 Z" id="Path" fill="#000000"></path>
                <path d="M11.1381531,19.9084522 C11.0406494,19.9459522 10.9425354,19.9792855 10.8441162,20.0074104 C10.9425354,19.9792855 11.0406494,19.9459522 11.1381531,19.9084522 Z" id="Path" fill="#000000"></path>
                <path d="M11.3302612,19.8988197 C11.2834168,19.920174 11.2362671,19.9399656 11.18927,19.9587156 C11.2362671,19.9399656 11.2834168,19.920174 11.3302612,19.8988197 Z" id="Path" fill="#000000"></path>
                <path d="M12.1123983,19.7635401 C12.0680823,19.7890609 12.0235736,19.8145819 11.9790649,19.8390609 C12.0235736,19.8145819 12.0680823,19.7890609 12.1123983,19.7635401 Z" id="Path" fill="#000000"></path>
                <path d="M12.8085042,19.5941779 C12.7640598,19.621782 12.7196154,19.6478238 12.6751709,19.6749071 C12.7196154,19.6478238 12.7640598,19.621782 12.8085042,19.5941779 Z" id="Path" fill="#000000"></path>
                <path d="M12.5965597,19.6493635 C12.5522614,19.6769676 12.5077438,19.7050927 12.4632263,19.7316551 C12.5077438,19.7050927 12.5522614,19.6774884 12.5965597,19.6493635 Z" id="Path" fill="#000000"></path>
                <path d="M12.3234273,19.7184622 C12.2792581,19.7445039 12.234676,19.768983 12.190094,19.793983 C12.234676,19.768983 12.2792581,19.7445039 12.3234273,19.7184622 Z" id="Path" fill="#000000"></path>
                <path d="M10.8409119,19.9583303 C10.7882691,19.9734345 10.7356262,19.9869762 10.6828308,19.9989553 C10.7356262,19.9869762 10.7882691,19.9734345 10.8409119,19.9583303 Z" id="Path" fill="#000000"></path>
                <path d="M20,9.98050682 C20,4.4692678 15.5220032,0 10,0 C4.47799684,0 0,4.4692678 0,9.98050682 C0,15.4917458 4.47799684,19.9610136 10,19.9610136 C10.0587463,19.9610136 10.1171875,19.9597953 10.1757812,19.9587293 L10.1757812,12.1893275 L8.02734375,12.1893275 L8.02734375,9.69039353 L10.1757812,9.69039353 L10.1757812,7.85148635 C10.1757812,5.71881092 11.4802551,4.5580531 13.386383,4.5580531 C14.2991638,4.5580531 15.0837707,4.62597466 15.3125,4.65628047 L15.3125,6.88520347 L13.9981079,6.88520347 C12.9611206,6.88520347 12.7603149,7.3771016 12.7603149,8.09880604 L12.7603149,9.69039353 L15.2398682,9.69039353 L14.916687,12.1893275 L12.7603149,12.1893275 L12.7603149,19.5754142 C16.940155,18.3794773 20,14.5361233 20,9.98050682 Z" id="Path" fill="#FFFFFF"></path>
                <path d="M10.6607055,19.9671571 C10.5566406,19.9900736 10.4521179,20.0083028 10.34729,20.020282 C10.4521179,20.0083028 10.5566406,19.9900736 10.6607055,19.9671571 Z" id="Path" fill="#000000"></path>
                <path d="M10.3419495,19.9968157 C10.2867127,20.0030655 10.2313232,20.0077531 10.1759338,20.0108781 C10.2313232,20.0077531 10.2867127,20.0030655 10.3419495,19.9968157 Z" id="Path" fill="#000000"></path>
            </g>
        </g>
    </g>
</svg>