<?xml version="1.0" encoding="UTF-8"?>
<svg width="20px" height="20px" viewBox="0 0 20 20" version="1.1" xmlns="http://www.w3.org/2000/svg" xmlns:xlink="http://www.w3.org/1999/xlink">
    <!-- Generator: Sketch 63.1 (92452) - https://sketch.com -->
    <title>instagram@1x</title>
    <desc>Created with Sketch.</desc>
    <g id="Symbols" stroke="none" stroke-width="1" fill="none" fill-rule="evenodd">
        <g id="Footer" transform="translate(-1060.000000, -465.000000)" fill="#FFFFFF" fill-rule="nonzero">
            <g id="instagram" transform="translate(1060.000000, 465.000000)">
                <path d="M11.9140625,10 C11.9140625,11.0571289 11.0571289,11.9140625 10,11.9140625 C8.94287109,11.9140625 8.0859375,11.0571289 8.0859375,10 C8.0859375,8.94287109 8.94287109,8.0859375 10,8.0859375 C11.0571289,8.0859375 11.9140625,8.94287109 11.9140625,10 Z" id="Path"></path>
                <path d="M14.4763184,6.61346438 C14.3843079,6.36413574 14.2375183,6.13845824 14.0467834,5.95321656 C13.8615418,5.76248168 13.6360168,5.61569215 13.3865356,5.52368164 C13.1842041,5.44509887 12.880249,5.3515625 12.3204041,5.32608031 C11.7147827,5.29846191 11.5332031,5.29251098 10,5.29251098 C8.4666443,5.29251098 8.28506469,5.29830934 7.67959594,5.32592773 C7.11975098,5.3515625 6.81564332,5.44509887 6.61346438,5.52368164 C6.36398316,5.61569215 6.13830566,5.76248168 5.95321656,5.95321656 C5.76248168,6.13845824 5.61569215,6.36398316 5.52352906,6.61346438 C5.44494629,6.8157959 5.35140992,7.11990355 5.32592773,7.67974852 C5.29830934,8.28521727 5.2923584,8.46679688 5.2923584,10.0001526 C5.2923584,11.5333557 5.29830934,11.7149353 5.32592773,12.3205566 C5.35140992,12.8804016 5.44494629,13.1843567 5.52352906,13.3866882 C5.61569215,13.6361695 5.7623291,13.8616943 5.95306398,14.046936 C6.13830566,14.2376709 6.36383055,14.3844605 6.61331176,14.4764709 C6.81564332,14.5552063 7.11975098,14.6487427 7.67959594,14.6742248 C8.28506469,14.7018433 8.46649172,14.7076416 9.99984742,14.7076416 C11.5333557,14.7076416 11.7149353,14.7018433 12.3202515,14.6742248 C12.8800964,14.6487427 13.1842041,14.5552063 13.3865356,14.4764709 C13.8873291,14.2832947 14.2831421,13.8874817 14.4763184,13.3866882 C14.5549011,13.1843567 14.6484375,12.8804016 14.6740723,12.3205566 C14.7016907,11.7149353 14.707489,11.5333557 14.707489,10.0001526 C14.707489,8.46679687 14.7016907,8.28521727 14.6740723,7.67974852 C14.6485901,7.11990355 14.5550537,6.8157959 14.4763184,6.61346437 L14.4763184,6.61346438 Z M10,12.9486084 C8.37142945,12.9486084 7.05123902,11.6285705 7.05123902,10 C7.05123902,8.37142945 8.37142945,7.0513916 10,7.0513916 C11.628418,7.0513916 12.9486084,8.37142945 12.9486084,10 C12.9486084,11.6285705 11.628418,12.9486084 10,12.9486084 Z M13.0651855,7.62390137 C12.6846313,7.62390137 12.3760986,7.31536867 12.3760986,6.93481445 C12.3760986,6.55426023 12.6846313,6.24572754 13.0651855,6.24572754 C13.4457398,6.24572754 13.7542725,6.55426023 13.7542725,6.93481445 C13.7541199,7.31536867 13.4457398,7.62390137 13.0651855,7.62390137 Z" id="Shape"></path>
                <path d="M10,0 C4.47799684,0 0,4.47799684 0,10 C0,15.5220032 4.47799684,20 10,20 C15.5220032,20 20,15.5220032 20,10 C20,4.47799684 15.5220032,0 10,0 Z M15.70755,12.3674011 C15.6797791,12.9786682 15.5825805,13.3959961 15.4406738,13.7612915 C15.1423645,14.5326233 14.5326233,15.1423645 13.7612915,15.4406738 C13.3961487,15.5825805 12.9786682,15.6796265 12.3675537,15.70755 C11.7552185,15.7354736 11.5596008,15.7421875 10.0001526,15.7421875 C8.44055176,15.7421875 8.24508668,15.7354736 7.63259887,15.70755 C7.02148438,15.6796265 6.60400391,15.5825805 6.23886109,15.4406738 C5.85556031,15.2964783 5.50857543,15.0704956 5.2217102,14.7782898 C4.92965699,14.4915771 4.7036743,14.1444397 4.55947875,13.7612915 C4.41757203,13.3961487 4.32037352,12.9786682 4.29260254,12.3675537 C4.26437379,11.7550659 4.2578125,11.5594482 4.2578125,10 C4.2578125,8.44055176 4.26437379,8.24493406 4.29244996,7.63259887 C4.32022094,7.0213318 4.41726684,6.60400391 4.55917359,6.23870852 C4.70336914,5.85556031 4.92950438,5.50842285 5.2217102,5.2217102 C5.50842285,4.92950438 5.85556031,4.70352172 6.23870852,4.55932617 C6.60400391,4.41741945 7.0213318,4.32037352 7.63259887,4.29244996 C8.24493406,4.26452637 8.44055176,4.2578125 10,4.2578125 C11.5594482,4.2578125 11.7550659,4.26452637 12.3674011,4.29260254 C12.9786682,4.32037352 13.3959961,4.41741945 13.7612915,4.55917359 C14.1444397,4.70336914 14.4915771,4.92950438 14.7784424,5.2217102 C15.0704956,5.50857543 15.2966309,5.85556031 15.4406738,6.23870852 C15.5827332,6.60400391 15.6797791,7.0213318 15.7077027,7.63259887 C15.7356262,8.24493406 15.7421875,8.44055176 15.7421875,10 C15.7421875,11.5594482 15.7356262,11.7550659 15.70755,12.3674011 L15.70755,12.3674011 Z" id="Shape"></path>
            </g>
        </g>
    </g>
</svg>