<?xml version="1.0" encoding="utf-8"?>
<!-- Generator: Adobe Illustrator 13.0.0, SVG Export Plug-In . SVG Version: 6.00 Build 14948)  -->
<!DOCTYPE svg PUBLIC "-//W3C//DTD SVG 1.1//EN" "http://www.w3.org/Graphics/SVG/1.1/DTD/svg11.dtd">
<svg version="1.1" id="Layer_1" xmlns="http://www.w3.org/2000/svg" xmlns:xlink="http://www.w3.org/1999/xlink" x="0px" y="0px"
	 width="12px" height="28px" viewBox="0 0 12 28" enable-background="new 0 0 12 28" xml:space="preserve">
<path fill="#919EB1" d="M11.965,21.811l-0.695-0.705c-0.047-0.049-0.125-0.049-0.174,0L6.613,25.66V0.125
	C6.613,0.056,6.559,0,6.49,0H5.51C5.441,0,5.386,0.056,5.386,0.125v25.544l-4.481-4.555c-0.048-0.048-0.126-0.048-0.174,0
	L0.036,21.82c-0.048,0.049-0.048,0.128,0,0.176l5.872,5.969c0.049,0.049,0.127,0.049,0.174,0l0.695-0.706v-0.001l5.188-5.27
	C12.012,21.939,12.012,21.859,11.965,21.811z"/>
</svg>
