<?xml version="1.0" encoding="UTF-8"?>
<svg width="20px" height="20px" viewBox="0 0 20 20" version="1.1" xmlns="http://www.w3.org/2000/svg" xmlns:xlink="http://www.w3.org/1999/xlink">
    <!-- Generator: Sketch 63.1 (92452) - https://sketch.com -->
    <title>twitter (3)@1x</title>
    <desc>Created with Sketch.</desc>
    <g id="Symbols" stroke="none" stroke-width="1" fill="none" fill-rule="evenodd">
        <g id="Footer" transform="translate(-1090.000000, -465.000000)" fill="#FFFFFF" fill-rule="nonzero">
            <g id="twitter-(3)" transform="translate(1090.000000, 465.000000)">
                <path d="M10,0 C4.47799684,0 0,4.47799684 0,10 C0,15.5220032 4.47799684,20 10,20 C15.5220032,20 20,15.5220032 20,10 C20,4.47799684 15.5220032,0 10,0 Z M14.5658875,7.79693602 C14.5703125,7.89535523 14.5724487,7.99423219 14.5724487,8.09356688 C14.5724487,11.1265564 12.2637939,14.6240234 8.04183961,14.624176 L8.04199219,14.624176 L8.04183961,14.624176 C6.74560547,14.624176 5.5393982,14.2442322 4.52362063,13.5931396 C4.70321656,13.6143494 4.88601684,13.6248779 5.07110594,13.6248779 C6.14654539,13.6248779 7.13623047,13.2580566 7.92190551,12.6423645 C6.91711426,12.6237488 6.06994629,11.9601441 5.77758789,11.0481262 C5.91751098,11.0749817 6.06140137,11.0896301 6.20895387,11.0896301 C6.41845703,11.0896301 6.62139891,11.0614014 6.81427,11.0087586 C5.76400758,10.7984924 4.97283938,9.87030031 4.97283938,8.75885008 C4.97283938,8.74847414 4.97283938,8.73916625 4.97314453,8.7295532 C5.2824402,8.90151977 5.63613891,9.00497438 6.01272582,9.01657105 C5.39642336,8.60534668 4.9913025,7.90237426 4.9913025,7.10601805 C4.9913025,6.68548586 5.10498047,6.29150391 5.30212402,5.95230102 C6.43402102,7.34115602 8.12561035,8.25454711 10.0332641,8.35052492 C9.99389648,8.18237305 9.9736023,8.00720215 9.9736023,7.82714844 C9.9736023,6.56005859 11.0015869,5.53207398 12.2691345,5.53207398 C12.9293823,5.53207398 13.5256958,5.81115723 13.9445496,6.25732422 C14.4674683,6.1541748 14.9584961,5.96313477 15.4020691,5.70022582 C15.2304077,6.23596191 14.8666382,6.68548586 14.3927002,6.96975707 C14.8570252,6.91421508 15.29953,6.79107664 15.7107544,6.60827637 C15.403595,7.06863402 15.0140381,7.47299195 14.5658875,7.79693602 Z" id="Shape"></path>
            </g>
        </g>
    </g>
</svg>