<?xml version="1.0" encoding="utf-8"?>
<!-- Generator: Adobe Illustrator 13.0.0, SVG Export Plug-In . SVG Version: 6.00 Build 14948)  -->
<!DOCTYPE svg PUBLIC "-//W3C//DTD SVG 1.1//EN" "http://www.w3.org/Graphics/SVG/1.1/DTD/svg11.dtd">
<svg version="1.1" id="Layer_1" xmlns="http://www.w3.org/2000/svg" xmlns:xlink="http://www.w3.org/1999/xlink" x="0px" y="0px"
	 width="28px" height="12px" viewBox="0 0 28 12" enable-background="new 0 0 28 12" xml:space="preserve">
<path fill="#1F373D" d="M21.81,0.036l-0.705,0.695c-0.049,0.047-0.049,0.125,0,0.173l4.555,4.482H0.125C0.056,5.387,0,5.441,0,5.51
	v0.981C0,6.56,0.056,6.614,0.125,6.614h25.544l-4.555,4.482c-0.049,0.048-0.049,0.125,0,0.173l0.705,0.694
	c0.049,0.048,0.128,0.048,0.177,0l5.968-5.872c0.048-0.048,0.048-0.126,0-0.175l-0.706-0.693h-0.002l-5.27-5.188
	C21.938-0.012,21.859-0.012,21.81,0.036z"/>
</svg>
