<?xml version="1.0" encoding="utf-8"?>
<!-- Generator: Adobe Illustrator 13.0.0, SVG Export Plug-In . SVG Version: 6.00 Build 14948)  -->
<!DOCTYPE svg PUBLIC "-//W3C//DTD SVG 1.1//EN" "http://www.w3.org/Graphics/SVG/1.1/DTD/svg11.dtd">
<svg version="1.1" id="Layer_1" xmlns="http://www.w3.org/2000/svg" xmlns:xlink="http://www.w3.org/1999/xlink" x="0px" y="0px"
	 width="16.808px" height="11.361px" viewBox="0 0 16.808 11.361" enable-background="new 0 0 16.808 11.361" xml:space="preserve">
<g>
	<g>
		<path d="M15.172,4.403V4.386V1.671C15.172,0.448,14.309,0,13.5,0H3.254C2.446,0,1.583,0.431,1.583,1.671v2.714v0.018
			C0.774,4.493,0,5.033,0,6.273v2.121c0,0.359,0.287,0.646,0.646,0.646h0.217v1.672c0,0.359,0.287,0.648,0.646,0.648h0.611
			c0.359,0,0.646-0.289,0.646-0.648V9.023H14.04v1.689c0,0.359,0.287,0.648,0.648,0.648h0.611c0.359,0,0.646-0.289,0.646-0.648
			V9.023h0.215c0.359,0,0.648-0.287,0.648-0.646V6.273C16.754,5.033,15.981,4.493,15.172,4.403z M2.194,1.671h0.035
			c0-0.845,0.559-1.024,1.025-1.024H13.5c0.469,0,1.025,0.18,1.025,1.024v2.714H14.04V2.841c0-0.36-0.287-0.648-0.646-0.648H9.438
			c-0.359,0-0.646,0.288-0.646,0.648v1.545H8.036V2.841c0-0.36-0.287-0.648-0.646-0.648H3.434c-0.359,0-0.646,0.288-0.646,0.648
			v1.545H2.194V1.671z M13.393,2.841v1.545H9.438V2.841H13.393L13.393,2.841z M7.424,2.841v1.545H3.469V2.841H7.424L7.424,2.841z
			 M2.104,10.713H1.493V9.023h0.611V10.713L2.104,10.713z M15.262,10.713h-0.611V9.023h0.611V10.713z M16.108,8.395h-0.846h-0.611
			H2.104H1.493H0.629V7.441h15.479V8.395z M16.108,6.795H0.629V6.273c0-1.079,0.791-1.24,1.24-1.24h0.342h1.24h3.955h2.031h3.955
			h1.133h0.342c0.467,0,1.24,0.161,1.24,1.24V6.795L16.108,6.795z"/>
	</g>
</g>
</svg>
