<?xml version="1.0" encoding="utf-8"?>
<!-- Generator: Adobe Illustrator 13.0.0, SVG Export Plug-In . SVG Version: 6.00 Build 14948)  -->
<!DOCTYPE svg PUBLIC "-//W3C//DTD SVG 1.1//EN" "http://www.w3.org/Graphics/SVG/1.1/DTD/svg11.dtd">
<svg version="1.1" id="Layer_1" xmlns="http://www.w3.org/2000/svg" xmlns:xlink="http://www.w3.org/1999/xlink" x="0px" y="0px"
	 width="25px" height="25px" viewBox="0 0 25 25" enable-background="new 0 0 25 25" xml:space="preserve">
<g>
	<g>
		<g>
			<path fill="#FFFFFF" d="M24.439,19.774l-3.86-3.871c-0.77-0.768-2.043-0.744-2.838,0.055l-1.945,1.948
				c-0.123-0.067-0.25-0.139-0.384-0.214c-1.229-0.682-2.91-1.617-4.679-3.392c-1.774-1.778-2.708-3.465-3.391-4.698
				C7.27,9.473,7.201,9.347,7.133,9.227l1.306-1.306L9.08,7.277c0.797-0.799,0.819-2.075,0.052-2.845l-3.861-3.87
				C4.503-0.208,3.229-0.184,2.432,0.615L1.345,1.711l0.029,0.029C1.009,2.208,0.705,2.746,0.478,3.326
				c-0.209,0.553-0.34,1.08-0.399,1.608C-0.431,9.17,1.5,13.042,6.742,18.295c7.245,7.261,13.083,6.713,13.335,6.686
				c0.549-0.065,1.074-0.196,1.609-0.405c0.574-0.225,1.11-0.529,1.576-0.895l0.023,0.021l1.103-1.082
				C25.183,21.821,25.207,20.544,24.439,19.774z"/>
		</g>
	</g>
</g>
</svg>
