<?xml version="1.0" encoding="utf-8"?>
<!-- Generator: Adobe Illustrator 13.0.0, SVG Export Plug-In . SVG Version: 6.00 Build 14948)  -->
<!DOCTYPE svg PUBLIC "-//W3C//DTD SVG 1.1//EN" "http://www.w3.org/Graphics/SVG/1.1/DTD/svg11.dtd">
<svg version="1.1" id="Layer_1" xmlns="http://www.w3.org/2000/svg" xmlns:xlink="http://www.w3.org/1999/xlink" x="0px" y="0px"
	 width="15.889px" height="15.891px" viewBox="0 0 15.889 15.891" enable-background="new 0 0 15.889 15.891" xml:space="preserve">
<path fill-rule="evenodd" clip-rule="evenodd" fill="#1F373D" d="M15.729,6.347c-0.105-0.512-0.26-1.014-0.464-1.494
	c-0.2-0.472-0.445-0.926-0.733-1.35c-0.283-0.421-0.609-0.815-0.969-1.174c-0.359-0.36-0.754-0.688-1.175-0.97
	c-0.424-0.288-0.878-0.536-1.351-0.735c-0.479-0.201-0.982-0.357-1.492-0.461C9.022,0.055,8.483,0,7.946,0
	C7.407,0,6.87,0.055,6.344,0.163c-0.508,0.104-1.012,0.26-1.491,0.461C4.381,0.823,3.926,1.071,3.502,1.359
	c-0.42,0.282-0.816,0.609-1.176,0.97C1.969,2.688,1.642,3.082,1.358,3.503c-0.287,0.424-0.534,0.878-0.732,1.35
	c-0.203,0.48-0.359,0.982-0.465,1.494C0.055,6.869,0,7.408,0,7.945c0,0.539,0.055,1.078,0.16,1.6
	c0.105,0.511,0.262,1.014,0.465,1.493c0.198,0.472,0.445,0.926,0.732,1.352c0.284,0.419,0.611,0.814,0.969,1.174
	c0.359,0.36,0.756,0.686,1.176,0.968c0.424,0.288,0.879,0.536,1.351,0.735c0.479,0.202,0.983,0.357,1.491,0.461
	c0.525,0.11,1.063,0.163,1.602,0.163c0.537,0,1.076-0.053,1.6-0.163c0.51-0.104,1.014-0.259,1.492-0.461
	c0.473-0.199,0.927-0.447,1.351-0.735c0.421-0.282,0.815-0.607,1.175-0.968c0.359-0.359,0.686-0.755,0.969-1.174
	c0.288-0.426,0.533-0.88,0.733-1.352c0.204-0.479,0.358-0.982,0.464-1.493c0.107-0.521,0.16-1.061,0.16-1.6
	C15.889,7.408,15.836,6.869,15.729,6.347z M14.728,7.877c-0.099-0.021-2.395-0.515-4.726-0.222c-0.047-0.116-0.098-0.233-0.146-0.35
	C9.714,6.974,9.563,6.645,9.405,6.321c2.68-1.094,3.767-2.667,3.781-2.687C14.136,4.791,14.712,6.269,14.728,7.877z M12.427,2.854
	c-0.018,0.027-0.984,1.497-3.545,2.457C7.723,3.179,6.449,1.486,6.346,1.352c0.514-0.123,1.049-0.19,1.6-0.19
	C9.663,1.161,11.231,1.801,12.427,2.854z M6.32,1.357v0.002c0,0-0.009,0.001-0.021,0.003C6.299,1.362,6.313,1.36,6.32,1.357z
	 M5.051,1.81c0.088,0.12,1.344,1.822,2.518,3.909C4.312,6.585,1.485,6.55,1.305,6.547C1.747,4.446,3.159,2.704,5.051,1.81z
	 M1.16,7.945c0-0.072,0.003-0.144,0.005-0.214C1.286,7.733,4.639,7.81,8.131,6.765c0.194,0.38,0.381,0.767,0.551,1.154
	c-0.09,0.022-0.178,0.052-0.268,0.079c-3.662,1.183-5.518,4.479-5.518,4.479l0.002,0.003C1.819,11.276,1.16,9.688,1.16,7.945z
	 M7.946,14.731c-1.643,0-3.149-0.585-4.322-1.555c0.088,0.072,0.151,0.118,0.151,0.118S5.076,10.458,9.1,9.056
	C9.116,9.05,9.129,9.044,9.143,9.043c0.957,2.479,1.352,4.558,1.449,5.151C9.78,14.539,8.885,14.731,7.946,14.731z M11.737,13.572
	c-0.069-0.408-0.432-2.399-1.32-4.846c2.189-0.35,4.088,0.251,4.229,0.297C14.342,10.914,13.261,12.546,11.737,13.572z"/>
</svg>
