<?xml version="1.0" encoding="utf-8"?>
<!-- Generator: Adobe Illustrator 13.0.0, SVG Export Plug-In . SVG Version: 6.00 Build 14948)  -->
<!DOCTYPE svg PUBLIC "-//W3C//DTD SVG 1.1//EN" "http://www.w3.org/Graphics/SVG/1.1/DTD/svg11.dtd">
<svg version="1.1" id="Layer_1" xmlns="http://www.w3.org/2000/svg" xmlns:xlink="http://www.w3.org/1999/xlink" x="0px" y="0px"
	 width="19px" height="25px" viewBox="0 0 19 25" enable-background="new 0 0 19 25" xml:space="preserve">
<g>
	<path fill="#FFFFFF" d="M9.5,0C4.262,0,0,4.129,0,9.204c0,1.324,0.279,2.588,0.83,3.758c2.375,5.035,6.93,10.352,8.27,11.86
		C9.199,24.934,9.346,25,9.5,25s0.301-0.065,0.4-0.178c1.34-1.509,5.893-6.825,8.27-11.86c0.551-1.17,0.83-2.434,0.83-3.758
		C19,4.129,14.738,0,9.5,0z M9.5,13.985c-2.721,0-4.934-2.145-4.934-4.781S6.779,4.422,9.5,4.422s4.934,2.145,4.934,4.781
		C14.436,11.84,12.221,13.985,9.5,13.985z"/>
</g>
</svg>
