<?xml version="1.0" encoding="utf-8"?>
<!-- Generator: Adobe Illustrator 13.0.0, SVG Export Plug-In . SVG Version: 6.00 Build 14948)  -->
<!DOCTYPE svg PUBLIC "-//W3C//DTD SVG 1.1//EN" "http://www.w3.org/Graphics/SVG/1.1/DTD/svg11.dtd">
<svg version="1.1" id="Layer_1" xmlns="http://www.w3.org/2000/svg" xmlns:xlink="http://www.w3.org/1999/xlink" x="0px" y="0px"
	 width="20px" height="25px" viewBox="0 0 20 25" enable-background="new 0 0 20 25" xml:space="preserve">
<g>
	<path fill="#FFFFFF" d="M10,0C4.486,0,0,4.128,0,9.204c0,1.324,0.295,2.588,0.875,3.757c2.5,5.035,7.294,10.353,8.705,11.862
		C9.684,24.934,9.838,25,10,25s0.316-0.065,0.421-0.177c1.411-1.51,6.204-6.826,8.706-11.862C19.707,11.792,20,10.527,20,9.204
		C20,4.128,15.516,0,10,0z M10,13.984c-2.864,0-5.194-2.145-5.194-4.78S7.136,4.422,10,4.422c2.866,0,5.196,2.146,5.196,4.782
		S12.865,13.984,10,13.984z"/>
</g>
</svg>
