<?xml version="1.0" encoding="utf-8"?>
<!-- Generator: Adobe Illustrator 13.0.0, SVG Export Plug-In . SVG Version: 6.00 Build 14948)  -->
<!DOCTYPE svg PUBLIC "-//W3C//DTD SVG 1.1//EN" "http://www.w3.org/Graphics/SVG/1.1/DTD/svg11.dtd">
<svg version="1.1" id="Layer_1" xmlns="http://www.w3.org/2000/svg" xmlns:xlink="http://www.w3.org/1999/xlink" x="0px" y="0px"
	 width="15px" height="14.567px" viewBox="0 0 15 14.567" enable-background="new 0 0 15 14.567" xml:space="preserve">
<path fill="#919EB1" d="M15,13.544l-3.549-3.568c0.723-1.029,1.15-2.283,1.15-3.641C12.602,2.836,9.781,0,6.3,0
	C2.821,0,0,2.836,0,6.335c0,3.498,2.821,6.333,6.3,6.334c1.611,0,3.076-0.613,4.19-1.611l3.49,3.51L15,13.544z M1.44,6.335
	C1.444,3.636,3.616,1.453,6.3,1.448c2.684,0.004,4.856,2.188,4.861,4.887c-0.005,2.699-2.177,4.883-4.861,4.887
	C3.616,11.218,1.444,9.034,1.44,6.335z"/>
</svg>
