<?xml version="1.0" encoding="utf-8"?>
<!-- Generator: Adobe Illustrator 13.0.0, SVG Export Plug-In . SVG Version: 6.00 Build 14948)  -->
<!DOCTYPE svg PUBLIC "-//W3C//DTD SVG 1.1//EN" "http://www.w3.org/Graphics/SVG/1.1/DTD/svg11.dtd">
<svg version="1.1" id="Layer_1" xmlns="http://www.w3.org/2000/svg" xmlns:xlink="http://www.w3.org/1999/xlink" x="0px" y="0px"
	 width="9.721px" height="11.486px" viewBox="0 0 9.721 11.486" enable-background="new 0 0 9.721 11.486" xml:space="preserve">
<path d="M7.478,0H4.89C3.653,0,2.647,1.006,2.647,2.244v1.319C1.152,3.78,0,5.07,0,6.625c0,0.248,0.201,0.447,0.449,0.447h5.294
	c0.248,0,0.448-0.199,0.448-0.447c0-1.555-1.151-2.845-2.646-3.063V2.244c0-0.743,0.604-1.346,1.346-1.346h2.588
	c0.742,0,1.346,0.603,1.346,1.346v8.793c0,0.249,0.201,0.449,0.449,0.449s0.448-0.2,0.448-0.449V2.244C9.721,1.006,8.714,0,7.478,0z
	 M5.248,6.176H0.943c0.208-0.997,1.094-1.749,2.152-1.749C4.155,4.427,5.041,5.179,5.248,6.176z M3.544,8.168v0.674
	c0,0.248-0.201,0.448-0.449,0.448c-0.247,0-0.448-0.2-0.448-0.448V8.168c0-0.247,0.201-0.447,0.448-0.447
	C3.344,7.721,3.544,7.921,3.544,8.168z M3.54,10.364v0.673c0,0.249-0.201,0.449-0.449,0.449c-0.248,0-0.448-0.2-0.448-0.449v-0.673
	c0-0.248,0.201-0.449,0.448-0.449C3.338,9.915,3.54,10.116,3.54,10.364z M1.783,8.168v0.674c0,0.248-0.201,0.448-0.449,0.448
	c-0.248,0-0.449-0.2-0.449-0.448V8.168c0-0.247,0.201-0.447,0.449-0.447C1.582,7.721,1.783,7.921,1.783,8.168z M1.777,10.364v0.673
	c0,0.249-0.201,0.449-0.449,0.449s-0.449-0.2-0.449-0.449v-0.673c0-0.248,0.201-0.449,0.449-0.449S1.777,10.116,1.777,10.364z
	 M5.301,8.168v0.674c0,0.248-0.201,0.448-0.448,0.448c-0.248,0-0.449-0.2-0.449-0.448V8.168c0-0.247,0.201-0.447,0.449-0.447
	C5.101,7.721,5.301,7.921,5.301,8.168z M5.295,10.364v0.673c0,0.249-0.201,0.449-0.448,0.449c-0.248,0-0.449-0.2-0.449-0.449v-0.673
	c0-0.248,0.201-0.449,0.449-0.449C5.095,9.915,5.295,10.116,5.295,10.364z"/>
</svg>
