<?xml version="1.0" encoding="utf-8"?>
<!-- Generator: Adobe Illustrator 13.0.0, SVG Export Plug-In . SVG Version: 6.00 Build 14948)  -->
<!DOCTYPE svg PUBLIC "-//W3C//DTD SVG 1.1//EN" "http://www.w3.org/Graphics/SVG/1.1/DTD/svg11.dtd">
<svg version="1.1" id="Layer_1" xmlns="http://www.w3.org/2000/svg" xmlns:xlink="http://www.w3.org/1999/xlink" x="0px" y="0px"
	 width="15.833px" height="12.866px" viewBox="0 0 15.833 12.866" enable-background="new 0 0 15.833 12.866" xml:space="preserve">
<path fill="#1F373D" d="M15.833,1.522c-0.582,0.259-1.207,0.434-1.865,0.512c0.67-0.401,1.186-1.038,1.428-1.798
	c-0.627,0.373-1.323,0.644-2.063,0.79C12.741,0.394,11.897,0,10.962,0C9.169,0,7.714,1.454,7.714,3.248
	c0,0.254,0.03,0.502,0.085,0.74c-2.7-0.134-5.093-1.428-6.696-3.395c-0.279,0.479-0.44,1.039-0.44,1.635
	c0,1.125,0.575,2.118,1.446,2.703C1.577,4.914,1.075,4.768,0.636,4.524c0,0.014,0,0.027,0,0.042c0,1.572,1.121,2.886,2.606,3.185
	c-0.273,0.074-0.56,0.112-0.856,0.112c-0.209,0-0.412-0.019-0.61-0.058c0.412,1.291,1.612,2.23,3.033,2.257
	c-1.111,0.871-2.511,1.391-4.033,1.391c-0.263,0-0.521-0.017-0.776-0.046c1.439,0.921,3.146,1.459,4.98,1.459
	c5.975,0,9.243-4.949,9.243-9.242c0-0.14-0.003-0.281-0.011-0.421C14.847,2.746,15.397,2.174,15.833,1.522z"/>
</svg>
